<?xml version="1.0" encoding="utf-8" standalone="no"?>
<!DOCTYPE svg PUBLIC "-//W3C//DTD SVG 1.1//EN"
  "http://www.w3.org/Graphics/SVG/1.1/DTD/svg11.dtd">
<svg xmlns:xlink="http://www.w3.org/1999/xlink" width="424.358177pt" height="216.76pt" viewBox="0 0 424.358177 216.76" xmlns="http://www.w3.org/2000/svg" version="1.1">
 <metadata>
  <rdf:RDF xmlns:dc="http://purl.org/dc/elements/1.1/" xmlns:cc="http://creativecommons.org/ns#" xmlns:rdf="http://www.w3.org/1999/02/22-rdf-syntax-ns#">
   <cc:Work>
    <dc:type rdf:resource="http://purl.org/dc/dcmitype/StillImage"/>
    <dc:date>2026-01-13T18:38:44.709776</dc:date>
    <dc:format>image/svg+xml</dc:format>
    <dc:creator>
     <cc:Agent>
      <dc:title>Matplotlib v3.9.2, https://matplotlib.org/</dc:title>
     </cc:Agent>
    </dc:creator>
   </cc:Work>
  </rdf:RDF>
 </metadata>
 <defs>
  <style type="text/css">*{stroke-linejoin: round; stroke-linecap: butt}</style>
 </defs>
 <g id="figure_1">
  <g id="patch_1">
   <path d="M 0 216.76 
L 424.358177 216.76 
L 424.358177 0 
L 0 0 
L 0 216.76 
z
" style="fill: none"/>
  </g>
  <g id="axes_1">
   <g id="patch_2">
    <path d="M 51.140338 209.56 
L 168.614023 209.56 
L 168.614023 43.24 
L 51.140338 43.24 
L 51.140338 209.56 
z
" style="fill: none"/>
   </g>
   <g id="matplotlib.axis_1"/>
   <g id="patch_3">
    <path d="M 168.614023 209.56 
L 168.614023 43.24 
" style="fill: none; stroke: #000000; stroke-width: 0.8; stroke-linejoin: miter; stroke-linecap: square"/>
   </g>
   <g id="patch_4">
    <path d="M 168.614023 202 
L 168.614023 202 
L 168.614023 194.782816 
L 168.614023 194.782816 
z
" clip-path="url(#p3348438129)" style="fill: #6a7ba2; stroke: #000000; stroke-linejoin: miter"/>
   </g>
   <g id="patch_5">
    <path d="M 168.614023 190.452506 
L 56.734323 190.452506 
L 56.734323 183.235322 
L 168.614023 183.235322 
z
" clip-path="url(#p3348438129)" style="fill: #6a7ba2; stroke: #000000; stroke-linejoin: miter"/>
   </g>
   <g id="patch_6">
    <path d="M 168.614023 178.905012 
L 164.886191 178.905012 
L 164.886191 171.687828 
L 168.614023 171.687828 
z
" clip-path="url(#p3348438129)" style="fill: #6a7ba2; stroke: #000000; stroke-linejoin: miter"/>
   </g>
   <g id="patch_7">
    <path d="M 168.614023 167.357518 
L 56.734323 167.357518 
L 56.734323 160.140334 
L 168.614023 160.140334 
z
" clip-path="url(#p3348438129)" style="fill: #6a7ba2; stroke: #000000; stroke-linejoin: miter"/>
   </g>
   <g id="patch_8">
    <path d="M 168.614023 155.810024 
L 168.614023 155.810024 
L 168.614023 148.59284 
L 168.614023 148.59284 
z
" clip-path="url(#p3348438129)" style="fill: #6a7ba2; stroke: #000000; stroke-linejoin: miter"/>
   </g>
   <g id="patch_9">
    <path d="M 168.614023 144.26253 
L 168.614023 144.26253 
L 168.614023 137.045346 
L 168.614023 137.045346 
z
" clip-path="url(#p3348438129)" style="fill: #6a7ba2; stroke: #000000; stroke-linejoin: miter"/>
   </g>
   <g id="patch_10">
    <path d="M 168.614023 132.715036 
L 168.614023 132.715036 
L 168.614023 125.497852 
L 168.614023 125.497852 
z
" clip-path="url(#p3348438129)" style="fill: #6a7ba2; stroke: #000000; stroke-linejoin: miter"/>
   </g>
   <g id="patch_11">
    <path d="M 168.614023 121.167542 
L 168.614023 121.167542 
L 168.614023 113.950358 
L 168.614023 113.950358 
z
" clip-path="url(#p3348438129)" style="fill: #6a7ba2; stroke: #000000; stroke-linejoin: miter"/>
   </g>
   <g id="patch_12">
    <path d="M 168.614023 109.620048 
L 168.614023 109.620048 
L 168.614023 102.402864 
L 168.614023 102.402864 
z
" clip-path="url(#p3348438129)" style="fill: #6a7ba2; stroke: #000000; stroke-linejoin: miter"/>
   </g>
   <g id="patch_13">
    <path d="M 168.614023 98.072554 
L 168.614023 98.072554 
L 168.614023 90.85537 
L 168.614023 90.85537 
z
" clip-path="url(#p3348438129)" style="fill: #6a7ba2; stroke: #000000; stroke-linejoin: miter"/>
   </g>
   <g id="patch_14">
    <path d="M 168.614023 86.52506 
L 168.614023 86.52506 
L 168.614023 79.307876 
L 168.614023 79.307876 
z
" clip-path="url(#p3348438129)" style="fill: #6a7ba2; stroke: #000000; stroke-linejoin: miter"/>
   </g>
   <g id="patch_15">
    <path d="M 168.614023 74.977566 
L 160.924158 74.977566 
L 160.924158 67.760382 
L 168.614023 67.760382 
z
" clip-path="url(#p3348438129)" style="fill: #6a7ba2; stroke: #000000; stroke-linejoin: miter"/>
   </g>
   <g id="patch_16">
    <path d="M 168.614023 58.017184 
L 142.693734 58.017184 
L 142.693734 50.8 
L 168.614023 50.8 
z
" clip-path="url(#p3348438129)" style="fill: #6a7ba2; stroke: #000000; stroke-linejoin: miter"/>
   </g>
   <g id="text_1">
    <!-- iNat2017 -->
    <g style="fill: #ff7f00" transform="translate(198.090495 201.150783) scale(0.1 -0.1)">
     <defs>
      <path id="DejaVuSerif-69" d="M 622 4353 
Q 622 4497 726 4603 
Q 831 4709 978 4709 
Q 1122 4709 1226 4603 
Q 1331 4497 1331 4353 
Q 1331 4206 1228 4103 
Q 1125 4000 978 4000 
Q 831 4000 726 4103 
Q 622 4206 622 4353 
z
M 1356 331 
L 1900 331 
L 1900 0 
L 231 0 
L 231 331 
L 781 331 
L 781 2988 
L 231 2988 
L 231 3322 
L 1356 3322 
L 1356 331 
z
" transform="scale(0.015625)"/>
      <path id="DejaVuSerif-4e" d="M 313 0 
L 313 331 
L 941 331 
L 941 4331 
L 313 4331 
L 313 4666 
L 1509 4666 
L 4306 984 
L 4306 4331 
L 3681 4331 
L 3681 4666 
L 5319 4666 
L 5319 4331 
L 4691 4331 
L 4691 -91 
L 4313 -91 
L 1325 3841 
L 1325 331 
L 1953 331 
L 1953 0 
L 313 0 
z
" transform="scale(0.015625)"/>
      <path id="DejaVuSerif-61" d="M 2547 1044 
L 2547 1747 
L 1806 1747 
Q 1378 1747 1168 1562 
Q 959 1378 959 997 
Q 959 650 1171 447 
Q 1384 244 1747 244 
Q 2106 244 2326 466 
Q 2547 688 2547 1044 
z
M 3122 2075 
L 3122 331 
L 3634 331 
L 3634 0 
L 2547 0 
L 2547 359 
Q 2356 128 2106 18 
Q 1856 -91 1522 -91 
Q 969 -91 644 203 
Q 319 497 319 997 
Q 319 1513 691 1797 
Q 1063 2081 1741 2081 
L 2547 2081 
L 2547 2309 
Q 2547 2688 2317 2895 
Q 2088 3103 1672 3103 
Q 1328 3103 1125 2947 
Q 922 2791 872 2484 
L 575 2484 
L 575 3156 
Q 875 3284 1158 3348 
Q 1441 3413 1709 3413 
Q 2400 3413 2761 3070 
Q 3122 2728 3122 2075 
z
" transform="scale(0.015625)"/>
      <path id="DejaVuSerif-74" d="M 691 2988 
L 184 2988 
L 184 3322 
L 691 3322 
L 691 4353 
L 1269 4353 
L 1269 3322 
L 2350 3322 
L 2350 2988 
L 1269 2988 
L 1269 878 
Q 1269 456 1350 337 
Q 1431 219 1650 219 
Q 1875 219 1978 351 
Q 2081 484 2088 781 
L 2522 781 
Q 2497 328 2275 118 
Q 2053 -91 1600 -91 
Q 1103 -91 897 129 
Q 691 350 691 878 
L 691 2988 
z
" transform="scale(0.015625)"/>
      <path id="DejaVuSerif-32" d="M 819 3553 
L 469 3553 
L 469 4384 
Q 803 4563 1142 4656 
Q 1481 4750 1806 4750 
Q 2534 4750 2956 4397 
Q 3378 4044 3378 3438 
Q 3378 2753 2422 1800 
Q 2347 1728 2309 1691 
L 1131 513 
L 3078 513 
L 3078 1088 
L 3444 1088 
L 3444 0 
L 434 0 
L 434 341 
L 1850 1753 
Q 2319 2222 2519 2614 
Q 2719 3006 2719 3438 
Q 2719 3909 2473 4175 
Q 2228 4441 1797 4441 
Q 1350 4441 1106 4219 
Q 863 3997 819 3553 
z
" transform="scale(0.015625)"/>
      <path id="DejaVuSerif-30" d="M 2034 219 
Q 2513 219 2750 744 
Q 2988 1269 2988 2328 
Q 2988 3391 2750 3916 
Q 2513 4441 2034 4441 
Q 1556 4441 1318 3916 
Q 1081 3391 1081 2328 
Q 1081 1269 1318 744 
Q 1556 219 2034 219 
z
M 2034 -91 
Q 1275 -91 848 546 
Q 422 1184 422 2328 
Q 422 3475 848 4112 
Q 1275 4750 2034 4750 
Q 2797 4750 3222 4112 
Q 3647 3475 3647 2328 
Q 3647 1184 3222 546 
Q 2797 -91 2034 -91 
z
" transform="scale(0.015625)"/>
      <path id="DejaVuSerif-31" d="M 909 0 
L 909 331 
L 1722 331 
L 1722 4213 
L 781 3603 
L 781 4013 
L 1919 4750 
L 2350 4750 
L 2350 331 
L 3163 331 
L 3163 0 
L 909 0 
z
" transform="scale(0.015625)"/>
      <path id="DejaVuSerif-37" d="M 3609 4347 
L 1784 0 
L 1319 0 
L 3059 4153 
L 903 4153 
L 903 3578 
L 538 3578 
L 538 4666 
L 3609 4666 
L 3609 4347 
z
" transform="scale(0.015625)"/>
     </defs>
     <use xlink:href="#DejaVuSerif-69"/>
     <use xlink:href="#DejaVuSerif-4e" x="31.982422"/>
     <use xlink:href="#DejaVuSerif-61" x="119.482422"/>
     <use xlink:href="#DejaVuSerif-74" x="179.101562"/>
     <use xlink:href="#DejaVuSerif-32" x="219.287109"/>
     <use xlink:href="#DejaVuSerif-30" x="282.910156"/>
     <use xlink:href="#DejaVuSerif-31" x="346.533203"/>
     <use xlink:href="#DejaVuSerif-37" x="410.15625"/>
    </g>
   </g>
   <g id="text_2">
    <!-- Redcaps -->
    <g style="fill: #ff7f00" transform="translate(200.307682 189.603289) scale(0.1 -0.1)">
     <defs>
      <path id="DejaVuSerif-52" d="M 3066 2316 
Q 3284 2256 3442 2114 
Q 3600 1972 3725 1716 
L 4403 331 
L 4972 331 
L 4972 0 
L 3872 0 
L 3144 1484 
Q 2934 1916 2759 2042 
Q 2584 2169 2278 2169 
L 1581 2169 
L 1581 331 
L 2241 331 
L 2241 0 
L 353 0 
L 353 331 
L 947 331 
L 947 4331 
L 353 4331 
L 353 4666 
L 2719 4666 
Q 3400 4666 3770 4341 
Q 4141 4016 4141 3419 
Q 4141 2938 3870 2661 
Q 3600 2384 3066 2316 
z
M 1581 2503 
L 2503 2503 
Q 2975 2503 3200 2726 
Q 3425 2950 3425 3419 
Q 3425 3888 3200 4109 
Q 2975 4331 2503 4331 
L 1581 4331 
L 1581 2503 
z
" transform="scale(0.015625)"/>
      <path id="DejaVuSerif-65" d="M 3469 1600 
L 991 1600 
L 991 1575 
Q 991 903 1244 561 
Q 1497 219 1991 219 
Q 2369 219 2611 417 
Q 2853 616 2950 1006 
L 3413 1006 
Q 3275 459 2904 184 
Q 2534 -91 1931 -91 
Q 1203 -91 761 389 
Q 319 869 319 1663 
Q 319 2450 753 2931 
Q 1188 3413 1894 3413 
Q 2647 3413 3050 2948 
Q 3453 2484 3469 1600 
z
M 2791 1931 
Q 2772 2513 2545 2808 
Q 2319 3103 1894 3103 
Q 1497 3103 1269 2806 
Q 1041 2509 991 1931 
L 2791 1931 
z
" transform="scale(0.015625)"/>
      <path id="DejaVuSerif-64" d="M 3359 331 
L 3909 331 
L 3909 0 
L 2784 0 
L 2784 519 
Q 2616 206 2355 57 
Q 2094 -91 1709 -91 
Q 1097 -91 708 395 
Q 319 881 319 1663 
Q 319 2444 706 2928 
Q 1094 3413 1709 3413 
Q 2094 3413 2355 3264 
Q 2616 3116 2784 2803 
L 2784 4531 
L 2241 4531 
L 2241 4863 
L 3359 4863 
L 3359 331 
z
M 2784 1497 
L 2784 1825 
Q 2784 2422 2554 2737 
Q 2325 3053 1888 3053 
Q 1444 3053 1217 2703 
Q 991 2353 991 1663 
Q 991 975 1217 622 
Q 1444 269 1888 269 
Q 2325 269 2554 583 
Q 2784 897 2784 1497 
z
" transform="scale(0.015625)"/>
      <path id="DejaVuSerif-63" d="M 3291 997 
Q 3169 466 2822 187 
Q 2475 -91 1925 -91 
Q 1200 -91 759 389 
Q 319 869 319 1663 
Q 319 2459 759 2936 
Q 1200 3413 1925 3413 
Q 2241 3413 2553 3339 
Q 2866 3266 3181 3116 
L 3181 2266 
L 2847 2266 
Q 2781 2703 2561 2903 
Q 2341 3103 1931 3103 
Q 1466 3103 1228 2742 
Q 991 2381 991 1663 
Q 991 944 1227 581 
Q 1463 219 1931 219 
Q 2303 219 2525 412 
Q 2747 606 2828 997 
L 3291 997 
z
" transform="scale(0.015625)"/>
      <path id="DejaVuSerif-70" d="M 1313 1825 
L 1313 1497 
Q 1313 897 1542 583 
Q 1772 269 2209 269 
Q 2650 269 2876 622 
Q 3103 975 3103 1663 
Q 3103 2353 2876 2703 
Q 2650 3053 2209 3053 
Q 1772 3053 1542 2737 
Q 1313 2422 1313 1825 
z
M 738 2988 
L 184 2988 
L 184 3322 
L 1313 3322 
L 1313 2803 
Q 1481 3116 1742 3264 
Q 2003 3413 2388 3413 
Q 3000 3413 3387 2928 
Q 3775 2444 3775 1663 
Q 3775 881 3387 395 
Q 3000 -91 2388 -91 
Q 2003 -91 1742 57 
Q 1481 206 1313 519 
L 1313 -997 
L 1856 -997 
L 1856 -1331 
L 184 -1331 
L 184 -997 
L 738 -997 
L 738 2988 
z
" transform="scale(0.015625)"/>
      <path id="DejaVuSerif-73" d="M 359 184 
L 359 959 
L 691 959 
Q 703 588 923 403 
Q 1144 219 1575 219 
Q 1963 219 2166 364 
Q 2369 509 2369 788 
Q 2369 1006 2220 1140 
Q 2072 1275 1594 1428 
L 1178 1569 
Q 750 1706 558 1912 
Q 366 2119 366 2438 
Q 366 2894 700 3153 
Q 1034 3413 1625 3413 
Q 1888 3413 2178 3344 
Q 2469 3275 2778 3144 
L 2778 2419 
L 2447 2419 
Q 2434 2741 2221 2922 
Q 2009 3103 1644 3103 
Q 1281 3103 1095 2975 
Q 909 2847 909 2591 
Q 909 2381 1050 2254 
Q 1191 2128 1613 1997 
L 2069 1856 
Q 2541 1709 2748 1489 
Q 2956 1269 2956 922 
Q 2956 450 2595 179 
Q 2234 -91 1600 -91 
Q 1278 -91 972 -22 
Q 666 47 359 184 
z
" transform="scale(0.015625)"/>
     </defs>
     <use xlink:href="#DejaVuSerif-52"/>
     <use xlink:href="#DejaVuSerif-65" x="75.292969"/>
     <use xlink:href="#DejaVuSerif-64" x="134.472656"/>
     <use xlink:href="#DejaVuSerif-63" x="198.486328"/>
     <use xlink:href="#DejaVuSerif-61" x="254.492188"/>
     <use xlink:href="#DejaVuSerif-70" x="314.111328"/>
     <use xlink:href="#DejaVuSerif-73" x="378.125"/>
    </g>
   </g>
   <g id="text_3">
    <!-- Pascal Sentences -->
    <g style="fill: #ff7f00" transform="translate(178.00612 178.055795) scale(0.1 -0.1)">
     <defs>
      <path id="DejaVuSerif-50" d="M 1581 2375 
L 2406 2375 
Q 2872 2375 3115 2626 
Q 3359 2878 3359 3353 
Q 3359 3831 3115 4081 
Q 2872 4331 2406 4331 
L 1581 4331 
L 1581 2375 
z
M 353 0 
L 353 331 
L 947 331 
L 947 4331 
L 353 4331 
L 353 4666 
L 2559 4666 
Q 3259 4666 3668 4311 
Q 4078 3956 4078 3353 
Q 4078 2753 3668 2397 
Q 3259 2041 2559 2041 
L 1581 2041 
L 1581 331 
L 2303 331 
L 2303 0 
L 353 0 
z
" transform="scale(0.015625)"/>
      <path id="DejaVuSerif-6c" d="M 1313 331 
L 1856 331 
L 1856 0 
L 184 0 
L 184 331 
L 738 331 
L 738 4531 
L 184 4531 
L 184 4863 
L 1313 4863 
L 1313 331 
z
" transform="scale(0.015625)"/>
      <path id="DejaVuSerif-20" transform="scale(0.015625)"/>
      <path id="DejaVuSerif-53" d="M 594 225 
L 594 1288 
L 953 1284 
Q 969 753 1261 498 
Q 1553 244 2150 244 
Q 2706 244 2998 464 
Q 3291 684 3291 1106 
Q 3291 1444 3114 1625 
Q 2938 1806 2369 1978 
L 1753 2163 
Q 1084 2366 811 2669 
Q 538 2972 538 3500 
Q 538 4094 959 4422 
Q 1381 4750 2144 4750 
Q 2469 4750 2856 4679 
Q 3244 4609 3681 4475 
L 3681 3481 
L 3328 3481 
Q 3275 3975 2998 4195 
Q 2722 4416 2156 4416 
Q 1663 4416 1405 4214 
Q 1147 4013 1147 3628 
Q 1147 3294 1340 3103 
Q 1534 2913 2163 2725 
L 2741 2553 
Q 3375 2363 3645 2067 
Q 3916 1772 3916 1275 
Q 3916 597 3481 253 
Q 3047 -91 2188 -91 
Q 1803 -91 1404 -12 
Q 1006 66 594 225 
z
" transform="scale(0.015625)"/>
      <path id="DejaVuSerif-6e" d="M 263 0 
L 263 331 
L 781 331 
L 781 2988 
L 231 2988 
L 231 3322 
L 1356 3322 
L 1356 2731 
Q 1516 3069 1770 3241 
Q 2025 3413 2363 3413 
Q 2913 3413 3172 3097 
Q 3431 2781 3431 2113 
L 3431 331 
L 3944 331 
L 3944 0 
L 2356 0 
L 2356 331 
L 2853 331 
L 2853 1931 
Q 2853 2541 2703 2767 
Q 2553 2994 2175 2994 
Q 1775 2994 1565 2701 
Q 1356 2409 1356 1850 
L 1356 331 
L 1856 331 
L 1856 0 
L 263 0 
z
" transform="scale(0.015625)"/>
     </defs>
     <use xlink:href="#DejaVuSerif-50"/>
     <use xlink:href="#DejaVuSerif-61" x="62.785156"/>
     <use xlink:href="#DejaVuSerif-73" x="122.404297"/>
     <use xlink:href="#DejaVuSerif-63" x="173.722656"/>
     <use xlink:href="#DejaVuSerif-61" x="229.728516"/>
     <use xlink:href="#DejaVuSerif-6c" x="289.347656"/>
     <use xlink:href="#DejaVuSerif-20" x="321.330078"/>
     <use xlink:href="#DejaVuSerif-53" x="353.117188"/>
     <use xlink:href="#DejaVuSerif-65" x="421.623047"/>
     <use xlink:href="#DejaVuSerif-6e" x="480.802734"/>
     <use xlink:href="#DejaVuSerif-74" x="545.207031"/>
     <use xlink:href="#DejaVuSerif-65" x="585.392578"/>
     <use xlink:href="#DejaVuSerif-6e" x="644.572266"/>
     <use xlink:href="#DejaVuSerif-63" x="708.976562"/>
     <use xlink:href="#DejaVuSerif-65" x="764.982422"/>
     <use xlink:href="#DejaVuSerif-73" x="824.162109"/>
    </g>
   </g>
   <g id="text_4">
    <!-- SBU Captions -->
    <g style="fill: #ff7f00" transform="translate(186.465495 166.508301) scale(0.1 -0.1)">
     <defs>
      <path id="DejaVuSerif-42" d="M 1581 331 
L 2516 331 
Q 3078 331 3337 575 
Q 3597 819 3597 1350 
Q 3597 1878 3339 2120 
Q 3081 2363 2516 2363 
L 1581 2363 
L 1581 331 
z
M 1581 2694 
L 2375 2694 
Q 2888 2694 3123 2891 
Q 3359 3088 3359 3513 
Q 3359 3941 3123 4136 
Q 2888 4331 2375 4331 
L 1581 4331 
L 1581 2694 
z
M 353 0 
L 353 331 
L 947 331 
L 947 4331 
L 353 4331 
L 353 4666 
L 2656 4666 
Q 3363 4666 3720 4377 
Q 4078 4088 4078 3513 
Q 4078 3097 3829 2850 
Q 3581 2603 3103 2547 
Q 3697 2472 4005 2167 
Q 4313 1863 4313 1350 
Q 4313 656 3875 328 
Q 3438 0 2509 0 
L 353 0 
z
" transform="scale(0.015625)"/>
      <path id="DejaVuSerif-55" d="M 897 4331 
L 300 4331 
L 300 4666 
L 2125 4666 
L 2125 4331 
L 1528 4331 
L 1528 1919 
Q 1528 1025 1820 672 
Q 2113 319 2828 319 
Q 3544 319 3836 672 
Q 4128 1025 4128 1919 
L 4128 4331 
L 3531 4331 
L 3531 4666 
L 5106 4666 
L 5106 4331 
L 4513 4331 
L 4513 1856 
Q 4513 791 4103 350 
Q 3694 -91 2713 -91 
Q 1731 -91 1314 353 
Q 897 797 897 1856 
L 897 4331 
z
" transform="scale(0.015625)"/>
      <path id="DejaVuSerif-43" d="M 4513 1234 
Q 4306 581 3820 245 
Q 3334 -91 2591 -91 
Q 2134 -91 1743 65 
Q 1353 222 1050 525 
Q 700 875 529 1320 
Q 359 1766 359 2328 
Q 359 3416 987 4083 
Q 1616 4750 2644 4750 
Q 3025 4750 3456 4650 
Q 3888 4550 4384 4347 
L 4384 3272 
L 4031 3272 
Q 3916 3859 3567 4137 
Q 3219 4416 2591 4416 
Q 1844 4416 1459 3886 
Q 1075 3356 1075 2328 
Q 1075 1303 1459 773 
Q 1844 244 2591 244 
Q 3113 244 3450 492 
Q 3788 741 3938 1234 
L 4513 1234 
z
" transform="scale(0.015625)"/>
      <path id="DejaVuSerif-6f" d="M 1925 219 
Q 2388 219 2623 584 
Q 2859 950 2859 1663 
Q 2859 2375 2623 2739 
Q 2388 3103 1925 3103 
Q 1463 3103 1227 2739 
Q 991 2375 991 1663 
Q 991 950 1228 584 
Q 1466 219 1925 219 
z
M 1925 -91 
Q 1200 -91 759 389 
Q 319 869 319 1663 
Q 319 2456 758 2934 
Q 1197 3413 1925 3413 
Q 2653 3413 3092 2934 
Q 3531 2456 3531 1663 
Q 3531 869 3092 389 
Q 2653 -91 1925 -91 
z
" transform="scale(0.015625)"/>
     </defs>
     <use xlink:href="#DejaVuSerif-53"/>
     <use xlink:href="#DejaVuSerif-42" x="68.505859"/>
     <use xlink:href="#DejaVuSerif-55" x="141.992188"/>
     <use xlink:href="#DejaVuSerif-20" x="226.269531"/>
     <use xlink:href="#DejaVuSerif-43" x="258.056641"/>
     <use xlink:href="#DejaVuSerif-61" x="334.570312"/>
     <use xlink:href="#DejaVuSerif-70" x="394.189453"/>
     <use xlink:href="#DejaVuSerif-74" x="458.203125"/>
     <use xlink:href="#DejaVuSerif-69" x="498.388672"/>
     <use xlink:href="#DejaVuSerif-6f" x="530.371094"/>
     <use xlink:href="#DejaVuSerif-6e" x="590.576172"/>
     <use xlink:href="#DejaVuSerif-73" x="654.980469"/>
    </g>
   </g>
   <g id="text_5">
    <!-- DUO -->
    <g style="fill: #004f6e" transform="translate(209.458463 154.960807) scale(0.1 -0.1)">
     <defs>
      <path id="DejaVuSerif-44" d="M 1581 331 
L 2163 331 
Q 3072 331 3558 850 
Q 4044 1369 4044 2338 
Q 4044 3306 3559 3818 
Q 3075 4331 2163 4331 
L 1581 4331 
L 1581 331 
z
M 353 0 
L 353 331 
L 947 331 
L 947 4331 
L 353 4331 
L 353 4666 
L 2209 4666 
Q 3416 4666 4089 4050 
Q 4763 3434 4763 2338 
Q 4763 1238 4088 619 
Q 3413 0 2209 0 
L 353 0 
z
" transform="scale(0.015625)"/>
      <path id="DejaVuSerif-4f" d="M 2625 244 
Q 3391 244 3781 770 
Q 4172 1297 4172 2328 
Q 4172 3363 3781 3889 
Q 3391 4416 2625 4416 
Q 1856 4416 1465 3889 
Q 1075 3363 1075 2328 
Q 1075 1297 1465 770 
Q 1856 244 2625 244 
z
M 2625 -91 
Q 2150 -91 1751 65 
Q 1353 222 1050 525 
Q 700 875 529 1319 
Q 359 1763 359 2328 
Q 359 2894 529 3339 
Q 700 3784 1050 4134 
Q 1356 4441 1750 4595 
Q 2144 4750 2625 4750 
Q 3641 4750 4266 4084 
Q 4891 3419 4891 2328 
Q 4891 1769 4719 1320 
Q 4547 872 4197 525 
Q 3891 219 3497 64 
Q 3103 -91 2625 -91 
z
" transform="scale(0.015625)"/>
     </defs>
     <use xlink:href="#DejaVuSerif-44"/>
     <use xlink:href="#DejaVuSerif-55" x="80.175781"/>
     <use xlink:href="#DejaVuSerif-4f" x="164.453125"/>
    </g>
   </g>
   <g id="text_6">
    <!-- SUIM -->
    <g style="fill: #004f6e" transform="translate(207.046745 143.413313) scale(0.1 -0.1)">
     <defs>
      <path id="DejaVuSerif-49" d="M 1581 331 
L 2175 331 
L 2175 0 
L 353 0 
L 353 331 
L 947 331 
L 947 4331 
L 353 4331 
L 353 4666 
L 2175 4666 
L 2175 4331 
L 1581 4331 
L 1581 331 
z
" transform="scale(0.015625)"/>
      <path id="DejaVuSerif-4d" d="M 353 0 
L 353 331 
L 947 331 
L 947 4331 
L 319 4331 
L 319 4666 
L 1678 4666 
L 3316 1344 
L 4953 4666 
L 6228 4666 
L 6228 4331 
L 5606 4331 
L 5606 331 
L 6203 331 
L 6203 0 
L 4378 0 
L 4378 331 
L 4972 331 
L 4972 3938 
L 3372 684 
L 2931 684 
L 1331 3938 
L 1331 331 
L 1925 331 
L 1925 0 
L 353 0 
z
" transform="scale(0.015625)"/>
     </defs>
     <use xlink:href="#DejaVuSerif-53"/>
     <use xlink:href="#DejaVuSerif-55" x="68.505859"/>
     <use xlink:href="#DejaVuSerif-49" x="152.783203"/>
     <use xlink:href="#DejaVuSerif-4d" x="192.285156"/>
    </g>
   </g>
   <g id="text_7">
    <!-- MAS3K -->
    <g style="fill: #004f6e" transform="translate(202.708463 131.865819) scale(0.1 -0.1)">
     <defs>
      <path id="DejaVuSerif-41" d="M 1281 1691 
L 2994 1691 
L 2138 3909 
L 1281 1691 
z
M -38 0 
L -38 331 
L 372 331 
L 2034 4666 
L 2559 4666 
L 4225 331 
L 4684 331 
L 4684 0 
L 2988 0 
L 2988 331 
L 3506 331 
L 3116 1356 
L 1153 1356 
L 763 331 
L 1275 331 
L 1275 0 
L -38 0 
z
" transform="scale(0.015625)"/>
      <path id="DejaVuSerif-33" d="M 622 4469 
Q 988 4606 1323 4678 
Q 1659 4750 1953 4750 
Q 2638 4750 3022 4454 
Q 3406 4159 3406 3634 
Q 3406 3213 3140 2930 
Q 2875 2647 2388 2547 
Q 2963 2466 3280 2130 
Q 3597 1794 3597 1259 
Q 3597 606 3158 257 
Q 2719 -91 1894 -91 
Q 1528 -91 1179 -12 
Q 831 66 488 225 
L 488 1131 
L 838 1131 
Q 869 681 1141 450 
Q 1413 219 1906 219 
Q 2384 219 2661 495 
Q 2938 772 2938 1253 
Q 2938 1803 2653 2086 
Q 2369 2369 1819 2369 
L 1522 2369 
L 1522 2688 
L 1678 2688 
Q 2225 2688 2498 2914 
Q 2772 3141 2772 3597 
Q 2772 4006 2547 4223 
Q 2322 4441 1900 4441 
Q 1478 4441 1245 4241 
Q 1013 4041 972 3647 
L 622 3647 
L 622 4469 
z
" transform="scale(0.015625)"/>
      <path id="DejaVuSerif-4b" d="M 353 0 
L 353 331 
L 947 331 
L 947 4331 
L 353 4331 
L 353 4666 
L 2175 4666 
L 2175 4331 
L 1581 4331 
L 1581 2566 
L 3591 4331 
L 3084 4331 
L 3084 4666 
L 4634 4666 
L 4634 4331 
L 4109 4331 
L 2106 2572 
L 4347 331 
L 4878 331 
L 4878 0 
L 3794 0 
L 1581 2216 
L 1581 331 
L 2175 331 
L 2175 0 
L 353 0 
z
" transform="scale(0.015625)"/>
     </defs>
     <use xlink:href="#DejaVuSerif-4d"/>
     <use xlink:href="#DejaVuSerif-41" x="102.392578"/>
     <use xlink:href="#DejaVuSerif-53" x="174.609375"/>
     <use xlink:href="#DejaVuSerif-33" x="243.115234"/>
     <use xlink:href="#DejaVuSerif-4b" x="306.738281"/>
    </g>
   </g>
   <g id="text_8">
    <!-- UIIS -->
    <g style="fill: #004f6e" transform="translate(210.191276 120.318325) scale(0.1 -0.1)">
     <use xlink:href="#DejaVuSerif-55"/>
     <use xlink:href="#DejaVuSerif-49" x="84.277344"/>
     <use xlink:href="#DejaVuSerif-49" x="123.779297"/>
     <use xlink:href="#DejaVuSerif-53" x="163.28125"/>
    </g>
   </g>
   <g id="text_9">
    <!-- SEAMPD21 -->
    <g style="fill: #004f6e" transform="translate(192.239713 108.770831) scale(0.1 -0.1)">
     <defs>
      <path id="DejaVuSerif-45" d="M 353 0 
L 353 331 
L 947 331 
L 947 4331 
L 353 4331 
L 353 4666 
L 4109 4666 
L 4109 3628 
L 3725 3628 
L 3725 4281 
L 1581 4281 
L 1581 2719 
L 3109 2719 
L 3109 3303 
L 3494 3303 
L 3494 1753 
L 3109 1753 
L 3109 2338 
L 1581 2338 
L 1581 384 
L 3775 384 
L 3775 1038 
L 4159 1038 
L 4159 0 
L 353 0 
z
" transform="scale(0.015625)"/>
     </defs>
     <use xlink:href="#DejaVuSerif-53"/>
     <use xlink:href="#DejaVuSerif-45" x="68.505859"/>
     <use xlink:href="#DejaVuSerif-41" x="141.503906"/>
     <use xlink:href="#DejaVuSerif-4d" x="213.720703"/>
     <use xlink:href="#DejaVuSerif-50" x="316.113281"/>
     <use xlink:href="#DejaVuSerif-44" x="383.398438"/>
     <use xlink:href="#DejaVuSerif-32" x="463.574219"/>
     <use xlink:href="#DejaVuSerif-31" x="527.197266"/>
    </g>
   </g>
   <g id="text_10">
    <!-- Wildfish -->
    <g style="fill: #004f6e" transform="translate(201.09362 97.223337) scale(0.1 -0.1)">
     <defs>
      <path id="DejaVuSerif-57" d="M 4878 0 
L 4366 0 
L 3297 3794 
L 2228 0 
L 1716 0 
L 494 4331 
L 31 4331 
L 31 4666 
L 1734 4666 
L 1734 4331 
L 1153 4331 
L 2125 884 
L 3188 4666 
L 3694 4666 
L 4775 844 
L 5753 4331 
L 5216 4331 
L 5216 4666 
L 6559 4666 
L 6559 4331 
L 6100 4331 
L 4878 0 
z
" transform="scale(0.015625)"/>
      <path id="DejaVuSerif-66" d="M 2753 4078 
L 2450 4078 
Q 2447 4313 2317 4434 
Q 2188 4556 1941 4556 
Q 1619 4556 1487 4379 
Q 1356 4203 1356 3750 
L 1356 3322 
L 2284 3322 
L 2284 2988 
L 1356 2988 
L 1356 331 
L 2094 331 
L 2094 0 
L 231 0 
L 231 331 
L 781 331 
L 781 2988 
L 231 2988 
L 231 3322 
L 781 3322 
L 781 3738 
Q 781 4294 1070 4578 
Q 1359 4863 1919 4863 
Q 2128 4863 2337 4825 
Q 2547 4788 2753 4709 
L 2753 4078 
z
" transform="scale(0.015625)"/>
      <path id="DejaVuSerif-68" d="M 263 0 
L 263 331 
L 781 331 
L 781 4531 
L 231 4531 
L 231 4863 
L 1356 4863 
L 1356 2731 
Q 1516 3069 1770 3241 
Q 2025 3413 2363 3413 
Q 2913 3413 3172 3097 
Q 3431 2781 3431 2113 
L 3431 331 
L 3944 331 
L 3944 0 
L 2356 0 
L 2356 331 
L 2853 331 
L 2853 1931 
Q 2853 2541 2704 2764 
Q 2556 2988 2175 2988 
Q 1775 2988 1565 2697 
Q 1356 2406 1356 1850 
L 1356 331 
L 1856 331 
L 1856 0 
L 263 0 
z
" transform="scale(0.015625)"/>
     </defs>
     <use xlink:href="#DejaVuSerif-57"/>
     <use xlink:href="#DejaVuSerif-69" x="101.033203"/>
     <use xlink:href="#DejaVuSerif-6c" x="133.015625"/>
     <use xlink:href="#DejaVuSerif-64" x="164.998047"/>
     <use xlink:href="#DejaVuSerif-66" x="229.011719"/>
     <use xlink:href="#DejaVuSerif-69" x="266.023438"/>
     <use xlink:href="#DejaVuSerif-73" x="298.005859"/>
     <use xlink:href="#DejaVuSerif-68" x="349.324219"/>
    </g>
   </g>
   <g id="text_11">
    <!-- FishNet -->
    <g style="fill: #004f6e" transform="translate(201.581901 85.675843) scale(0.1 -0.1)">
     <defs>
      <path id="DejaVuSerif-46" d="M 353 0 
L 353 331 
L 947 331 
L 947 4331 
L 353 4331 
L 353 4666 
L 4172 4666 
L 4172 3628 
L 3788 3628 
L 3788 4281 
L 1581 4281 
L 1581 2719 
L 3175 2719 
L 3175 3303 
L 3559 3303 
L 3559 1753 
L 3175 1753 
L 3175 2338 
L 1581 2338 
L 1581 331 
L 2328 331 
L 2328 0 
L 353 0 
z
" transform="scale(0.015625)"/>
     </defs>
     <use xlink:href="#DejaVuSerif-46"/>
     <use xlink:href="#DejaVuSerif-69" x="69.384766"/>
     <use xlink:href="#DejaVuSerif-73" x="101.367188"/>
     <use xlink:href="#DejaVuSerif-68" x="152.685547"/>
     <use xlink:href="#DejaVuSerif-4e" x="217.089844"/>
     <use xlink:href="#DejaVuSerif-65" x="304.589844"/>
     <use xlink:href="#DejaVuSerif-74" x="363.769531"/>
    </g>
   </g>
   <g id="text_12">
    <!-- Wildfish++ -->
    <g style="fill: #004f6e" transform="translate(192.713932 74.128349) scale(0.1 -0.1)">
     <defs>
      <path id="DejaVuSerif-2b" d="M 2931 4013 
L 2931 2259 
L 4684 2259 
L 4684 1753 
L 2931 1753 
L 2931 0 
L 2431 0 
L 2431 1753 
L 678 1753 
L 678 2259 
L 2431 2259 
L 2431 4013 
L 2931 4013 
z
" transform="scale(0.015625)"/>
     </defs>
     <use xlink:href="#DejaVuSerif-57"/>
     <use xlink:href="#DejaVuSerif-69" x="101.033203"/>
     <use xlink:href="#DejaVuSerif-6c" x="133.015625"/>
     <use xlink:href="#DejaVuSerif-64" x="164.998047"/>
     <use xlink:href="#DejaVuSerif-66" x="229.011719"/>
     <use xlink:href="#DejaVuSerif-69" x="266.023438"/>
     <use xlink:href="#DejaVuSerif-73" x="298.005859"/>
     <use xlink:href="#DejaVuSerif-68" x="349.324219"/>
     <use xlink:href="#DejaVuSerif-2b" x="413.728516"/>
     <use xlink:href="#DejaVuSerif-2b" x="497.517578"/>
    </g>
   </g>
   <g id="text_13">
    <!-- ORCA (Ours) -->
    <g style="fill: #004f6e" transform="translate(185.498307 57.167967) scale(0.1 -0.1)">
     <defs>
      <path id="DejaVuSerif-Bold-4f" d="M 2784 288 
Q 3381 288 3672 791 
Q 3963 1294 3963 2328 
Q 3963 3366 3672 3869 
Q 3381 4372 2784 4372 
Q 2191 4372 1898 3864 
Q 1606 3356 1606 2328 
Q 1606 1303 1898 795 
Q 2191 288 2784 288 
z
M 2784 -91 
Q 1606 -91 937 553 
Q 269 1197 269 2328 
Q 269 3459 939 4104 
Q 1609 4750 2784 4750 
Q 3963 4750 4631 4106 
Q 5300 3463 5300 2328 
Q 5300 1197 4629 553 
Q 3959 -91 2784 -91 
z
" transform="scale(0.015625)"/>
      <path id="DejaVuSerif-Bold-52" d="M 3397 2278 
Q 3675 2238 3865 2094 
Q 4056 1950 4197 1678 
L 4878 378 
L 5356 378 
L 5356 0 
L 3822 0 
L 3078 1409 
Q 2863 1847 2711 1967 
Q 2559 2088 2291 2088 
L 2100 2088 
L 2100 378 
L 2700 378 
L 2700 0 
L 300 0 
L 300 378 
L 897 378 
L 897 4288 
L 300 4288 
L 300 4666 
L 2963 4666 
Q 3775 4666 4217 4339 
Q 4659 4013 4659 3413 
Q 4659 2925 4345 2642 
Q 4031 2359 3397 2278 
z
M 2100 2463 
L 2509 2463 
Q 2947 2463 3183 2700 
Q 3419 2938 3419 3378 
Q 3419 3819 3183 4053 
Q 2947 4288 2509 4288 
L 2100 4288 
L 2100 2463 
z
" transform="scale(0.015625)"/>
      <path id="DejaVuSerif-Bold-43" d="M 4769 1331 
Q 4584 609 4106 259 
Q 3628 -91 2822 -91 
Q 1641 -91 955 561 
Q 269 1213 269 2328 
Q 269 3447 955 4098 
Q 1641 4750 2822 4750 
Q 3238 4750 3688 4650 
Q 4138 4550 4641 4347 
L 4641 3200 
L 4244 3200 
Q 4122 3788 3800 4080 
Q 3478 4372 2950 4372 
Q 2269 4372 1937 3870 
Q 1606 3369 1606 2328 
Q 1606 1288 1937 788 
Q 2269 288 2956 288 
Q 3422 288 3717 547 
Q 4013 806 4147 1331 
L 4769 1331 
z
" transform="scale(0.015625)"/>
      <path id="DejaVuSerif-Bold-41" d="M -50 0 
L -50 378 
L 331 378 
L 2088 4666 
L 2834 4666 
L 4594 378 
L 5038 378 
L 5038 0 
L 2853 0 
L 2853 378 
L 3309 378 
L 2925 1331 
L 1172 1331 
L 781 378 
L 1338 378 
L 1338 0 
L -50 0 
z
M 1325 1709 
L 2772 1709 
L 2053 3494 
L 1325 1709 
z
" transform="scale(0.015625)"/>
      <path id="DejaVuSerif-Bold-20" transform="scale(0.015625)"/>
      <path id="DejaVuSerif-Bold-28" d="M 2694 -997 
Q 1641 -606 1122 122 
Q 603 850 603 1931 
Q 603 3013 1115 3731 
Q 1628 4450 2694 4863 
L 2694 4488 
Q 2200 4188 1983 3598 
Q 1766 3009 1766 1931 
Q 1766 856 1983 267 
Q 2200 -322 2694 -622 
L 2694 -997 
z
" transform="scale(0.015625)"/>
      <path id="DejaVuSerif-Bold-75" d="M 3963 3322 
L 3963 378 
L 4434 378 
L 4434 0 
L 2853 0 
L 2853 469 
Q 2656 172 2400 40 
Q 2144 -91 1753 -91 
Q 1194 -91 908 239 
Q 622 569 622 1209 
L 622 2944 
L 147 2944 
L 147 3322 
L 1728 3322 
L 1728 1381 
Q 1728 763 1831 595 
Q 1934 428 2209 428 
Q 2544 428 2698 675 
Q 2853 922 2853 1459 
L 2853 2944 
L 2450 2944 
L 2450 3322 
L 3963 3322 
z
" transform="scale(0.015625)"/>
      <path id="DejaVuSerif-Bold-72" d="M 3438 3359 
L 3438 2369 
L 3084 2369 
Q 3066 2634 2941 2764 
Q 2816 2894 2578 2894 
Q 2216 2894 2006 2575 
Q 1797 2256 1797 1691 
L 1797 378 
L 2400 378 
L 2400 0 
L 219 0 
L 219 378 
L 691 378 
L 691 2944 
L 184 2944 
L 184 3322 
L 1797 3322 
L 1797 2731 
Q 1959 3078 2226 3245 
Q 2494 3413 2881 3413 
Q 2978 3413 3117 3398 
Q 3256 3384 3438 3359 
z
" transform="scale(0.015625)"/>
      <path id="DejaVuSerif-Bold-73" d="M 300 97 
L 300 1025 
L 653 1025 
Q 697 653 931 458 
Q 1166 263 1569 263 
Q 1906 263 2086 380 
Q 2266 497 2266 716 
Q 2266 916 2152 1025 
Q 2038 1134 1709 1216 
L 1253 1331 
Q 738 1459 506 1698 
Q 275 1938 275 2344 
Q 275 2884 650 3148 
Q 1025 3413 1806 3413 
Q 2100 3413 2433 3364 
Q 2766 3316 3169 3213 
L 3169 2375 
L 2816 2375 
Q 2788 2716 2573 2887 
Q 2359 3059 1959 3059 
Q 1622 3059 1448 2951 
Q 1275 2844 1275 2638 
Q 1275 2469 1375 2372 
Q 1475 2275 1734 2209 
L 2188 2094 
Q 2841 1928 3091 1684 
Q 3341 1441 3341 1006 
Q 3341 444 2939 176 
Q 2538 -91 1691 -91 
Q 1381 -91 1034 -44 
Q 688 3 300 97 
z
" transform="scale(0.015625)"/>
      <path id="DejaVuSerif-Bold-29" d="M 325 -997 
L 325 -622 
Q 819 -322 1036 267 
Q 1253 856 1253 1931 
Q 1253 3009 1036 3598 
Q 819 4188 325 4488 
L 325 4863 
Q 1391 4450 1905 3731 
Q 2419 3013 2419 1931 
Q 2419 850 1898 122 
Q 1378 -606 325 -997 
z
" transform="scale(0.015625)"/>
     </defs>
     <use xlink:href="#DejaVuSerif-Bold-4f"/>
     <use xlink:href="#DejaVuSerif-Bold-52" x="87.109375"/>
     <use xlink:href="#DejaVuSerif-Bold-43" x="170.214844"/>
     <use xlink:href="#DejaVuSerif-Bold-41" x="249.804688"/>
     <use xlink:href="#DejaVuSerif-Bold-20" x="327.392578"/>
     <use xlink:href="#DejaVuSerif-Bold-28" x="362.207031"/>
     <use xlink:href="#DejaVuSerif-Bold-4f" x="409.521484"/>
     <use xlink:href="#DejaVuSerif-Bold-75" x="496.630859"/>
     <use xlink:href="#DejaVuSerif-Bold-72" x="569.335938"/>
     <use xlink:href="#DejaVuSerif-Bold-73" x="622.021484"/>
     <use xlink:href="#DejaVuSerif-Bold-29" x="678.320312"/>
    </g>
   </g>
   <g id="text_14">
    <!-- 0 -->
    <g transform="translate(159.794699 200.598908) scale(0.08 -0.08)">
     <use xlink:href="#DejaVuSerif-30"/>
    </g>
   </g>
   <g id="text_15">
    <!-- 12,011,121 -->
    <g transform="translate(7.2 189.051414) scale(0.08 -0.08)">
     <defs>
      <path id="DejaVuSerif-2c" d="M 231 -622 
Q 525 -406 662 -114 
Q 800 178 800 594 
L 800 709 
L 1416 709 
Q 1391 175 1164 -208 
Q 938 -591 481 -872 
L 231 -622 
z
" transform="scale(0.015625)"/>
     </defs>
     <use xlink:href="#DejaVuSerif-31"/>
     <use xlink:href="#DejaVuSerif-32" x="63.623047"/>
     <use xlink:href="#DejaVuSerif-2c" x="127.246094"/>
     <use xlink:href="#DejaVuSerif-30" x="159.033203"/>
     <use xlink:href="#DejaVuSerif-31" x="222.65625"/>
     <use xlink:href="#DejaVuSerif-31" x="286.279297"/>
     <use xlink:href="#DejaVuSerif-2c" x="349.902344"/>
     <use xlink:href="#DejaVuSerif-31" x="381.689453"/>
     <use xlink:href="#DejaVuSerif-32" x="445.3125"/>
     <use xlink:href="#DejaVuSerif-31" x="508.935547"/>
    </g>
   </g>
   <g id="text_16">
    <!-- 4,998 -->
    <g transform="translate(138.254368 177.50392) scale(0.08 -0.08)">
     <defs>
      <path id="DejaVuSerif-34" d="M 2234 1581 
L 2234 4063 
L 641 1581 
L 2234 1581 
z
M 3609 0 
L 1484 0 
L 1484 331 
L 2234 331 
L 2234 1247 
L 197 1247 
L 197 1588 
L 2241 4750 
L 2859 4750 
L 2859 1581 
L 3750 1581 
L 3750 1247 
L 2859 1247 
L 2859 331 
L 3609 331 
L 3609 0 
z
" transform="scale(0.015625)"/>
      <path id="DejaVuSerif-39" d="M 2994 2091 
Q 2784 1856 2512 1740 
Q 2241 1625 1900 1625 
Q 1206 1625 804 2044 
Q 403 2463 403 3188 
Q 403 3897 839 4323 
Q 1275 4750 2003 4750 
Q 2794 4750 3217 4161 
Q 3641 3572 3641 2478 
Q 3641 1253 3137 581 
Q 2634 -91 1722 -91 
Q 1475 -91 1203 -44 
Q 931 3 647 97 
L 647 872 
L 997 872 
Q 1038 556 1241 387 
Q 1444 219 1784 219 
Q 2391 219 2687 676 
Q 2984 1134 2994 2091 
z
M 1978 4441 
Q 1534 4441 1298 4117 
Q 1063 3794 1063 3188 
Q 1063 2581 1298 2256 
Q 1534 1931 1978 1931 
Q 2422 1931 2658 2245 
Q 2894 2559 2894 3150 
Q 2894 3772 2656 4106 
Q 2419 4441 1978 4441 
z
" transform="scale(0.015625)"/>
      <path id="DejaVuSerif-38" d="M 2981 1275 
Q 2981 1775 2732 2051 
Q 2484 2328 2034 2328 
Q 1584 2328 1336 2051 
Q 1088 1775 1088 1275 
Q 1088 772 1336 495 
Q 1584 219 2034 219 
Q 2484 219 2732 495 
Q 2981 772 2981 1275 
z
M 2853 3541 
Q 2853 3966 2637 4203 
Q 2422 4441 2034 4441 
Q 1650 4441 1433 4203 
Q 1216 3966 1216 3541 
Q 1216 3113 1433 2875 
Q 1650 2638 2034 2638 
Q 2422 2638 2637 2875 
Q 2853 3113 2853 3541 
z
M 2516 2484 
Q 3047 2413 3344 2092 
Q 3641 1772 3641 1275 
Q 3641 619 3225 264 
Q 2809 -91 2034 -91 
Q 1263 -91 845 264 
Q 428 619 428 1275 
Q 428 1772 725 2092 
Q 1022 2413 1556 2484 
Q 1084 2569 832 2842 
Q 581 3116 581 3541 
Q 581 4103 968 4426 
Q 1356 4750 2034 4750 
Q 2713 4750 3100 4426 
Q 3488 4103 3488 3541 
Q 3488 3116 3236 2842 
Q 2984 2569 2516 2484 
z
" transform="scale(0.015625)"/>
     </defs>
     <use xlink:href="#DejaVuSerif-34"/>
     <use xlink:href="#DejaVuSerif-2c" x="63.623047"/>
     <use xlink:href="#DejaVuSerif-39" x="95.410156"/>
     <use xlink:href="#DejaVuSerif-39" x="159.033203"/>
     <use xlink:href="#DejaVuSerif-38" x="222.65625"/>
    </g>
   </g>
   <g id="text_17">
    <!-- 1,000,000 -->
    <g transform="translate(12.29 165.956426) scale(0.08 -0.08)">
     <use xlink:href="#DejaVuSerif-31"/>
     <use xlink:href="#DejaVuSerif-2c" x="63.623047"/>
     <use xlink:href="#DejaVuSerif-30" x="95.410156"/>
     <use xlink:href="#DejaVuSerif-30" x="159.033203"/>
     <use xlink:href="#DejaVuSerif-30" x="222.65625"/>
     <use xlink:href="#DejaVuSerif-2c" x="286.279297"/>
     <use xlink:href="#DejaVuSerif-30" x="318.066406"/>
     <use xlink:href="#DejaVuSerif-30" x="381.689453"/>
     <use xlink:href="#DejaVuSerif-30" x="445.3125"/>
    </g>
   </g>
   <g id="text_18">
    <!-- 0 -->
    <g transform="translate(159.794699 154.408932) scale(0.08 -0.08)">
     <use xlink:href="#DejaVuSerif-30"/>
    </g>
   </g>
   <g id="text_19">
    <!-- 0 -->
    <g transform="translate(159.794699 142.861438) scale(0.08 -0.08)">
     <use xlink:href="#DejaVuSerif-30"/>
    </g>
   </g>
   <g id="text_20">
    <!-- 0 -->
    <g transform="translate(159.794699 131.313944) scale(0.08 -0.08)">
     <use xlink:href="#DejaVuSerif-30"/>
    </g>
   </g>
   <g id="text_21">
    <!-- 0 -->
    <g transform="translate(159.794699 119.76645) scale(0.08 -0.08)">
     <use xlink:href="#DejaVuSerif-30"/>
    </g>
   </g>
   <g id="text_22">
    <!-- 0 -->
    <g transform="translate(159.794699 108.218956) scale(0.08 -0.08)">
     <use xlink:href="#DejaVuSerif-30"/>
    </g>
   </g>
   <g id="text_23">
    <!-- 0 -->
    <g transform="translate(159.794699 96.671462) scale(0.08 -0.08)">
     <use xlink:href="#DejaVuSerif-30"/>
    </g>
   </g>
   <g id="text_24">
    <!-- 0 -->
    <g transform="translate(159.794699 85.123968) scale(0.08 -0.08)">
     <use xlink:href="#DejaVuSerif-30"/>
    </g>
   </g>
   <g id="text_25">
    <!-- 10,310 -->
    <g transform="translate(129.202335 73.576474) scale(0.08 -0.08)">
     <use xlink:href="#DejaVuSerif-31"/>
     <use xlink:href="#DejaVuSerif-30" x="63.623047"/>
     <use xlink:href="#DejaVuSerif-2c" x="127.246094"/>
     <use xlink:href="#DejaVuSerif-33" x="159.033203"/>
     <use xlink:href="#DejaVuSerif-31" x="222.65625"/>
     <use xlink:href="#DejaVuSerif-30" x="286.279297"/>
    </g>
   </g>
   <g id="text_26">
    <!-- 34,752 -->
    <g transform="translate(108.348161 56.616092) scale(0.08 -0.08)">
     <defs>
      <path id="DejaVuSerif-Bold-33" d="M 550 4531 
Q 963 4641 1350 4695 
Q 1738 4750 2106 4750 
Q 2950 4750 3401 4448 
Q 3853 4147 3853 3584 
Q 3853 3163 3593 2900 
Q 3334 2638 2834 2547 
Q 3444 2450 3744 2131 
Q 4044 1813 4044 1259 
Q 4044 606 3526 257 
Q 3009 -91 2028 -91 
Q 1659 -91 1267 -28 
Q 875 34 447 159 
L 447 1184 
L 825 1184 
Q 859 741 1103 508 
Q 1347 275 1778 275 
Q 2253 275 2512 539 
Q 2772 803 2772 1288 
Q 2772 1794 2501 2069 
Q 2231 2344 1734 2344 
L 1528 2344 
L 1528 2719 
L 1691 2719 
Q 2150 2719 2381 2931 
Q 2613 3144 2613 3566 
Q 2613 3963 2395 4173 
Q 2178 4384 1772 4384 
Q 1403 4384 1187 4182 
Q 972 3981 928 3597 
L 550 3597 
L 550 4531 
z
" transform="scale(0.015625)"/>
      <path id="DejaVuSerif-Bold-34" d="M 4084 0 
L 1516 0 
L 1516 378 
L 2209 378 
L 2209 1228 
L 263 1228 
L 263 1588 
L 2216 4750 
L 3391 4750 
L 3391 1631 
L 4191 1631 
L 4191 1228 
L 3391 1228 
L 3391 378 
L 4084 378 
L 4084 0 
z
M 2209 1631 
L 2209 3897 
L 819 1631 
L 2209 1631 
z
" transform="scale(0.015625)"/>
      <path id="DejaVuSerif-Bold-2c" d="M 84 -616 
Q 409 -353 562 -28 
Q 716 297 716 728 
L 716 997 
L 1606 997 
L 1606 972 
Q 1606 281 1317 -217 
Q 1028 -716 428 -1056 
L 84 -616 
z
" transform="scale(0.015625)"/>
      <path id="DejaVuSerif-Bold-37" d="M 3922 3872 
L 1997 0 
L 1363 0 
L 3238 3781 
L 934 3781 
L 934 3150 
L 506 3150 
L 506 4666 
L 3922 4666 
L 3922 3872 
z
" transform="scale(0.015625)"/>
      <path id="DejaVuSerif-Bold-35" d="M 3609 4666 
L 3609 3847 
L 1113 3847 
L 1113 2822 
Q 1319 2981 1572 3062 
Q 1825 3144 2106 3144 
Q 2969 3144 3469 2708 
Q 3969 2272 3969 1522 
Q 3969 759 3469 334 
Q 2969 -91 2069 -91 
Q 1688 -91 1311 -28 
Q 934 34 525 166 
L 525 1184 
L 900 1184 
Q 919 725 1139 500 
Q 1359 275 1791 275 
Q 2250 275 2472 583 
Q 2694 891 2694 1522 
Q 2694 2144 2476 2451 
Q 2259 2759 1819 2759 
Q 1581 2759 1395 2661 
Q 1209 2563 1050 2356 
L 738 2356 
L 738 4666 
L 3609 4666 
z
" transform="scale(0.015625)"/>
      <path id="DejaVuSerif-Bold-32" d="M 844 3513 
L 469 3513 
L 469 4519 
Q 850 4634 1223 4692 
Q 1597 4750 1978 4750 
Q 2869 4750 3367 4386 
Q 3866 4022 3866 3372 
Q 3866 2909 3591 2542 
Q 3316 2175 2541 1672 
L 1241 819 
L 3450 819 
L 3450 1369 
L 3878 1369 
L 3878 0 
L 428 0 
L 428 763 
L 1119 1241 
Q 2003 1850 2297 2278 
Q 2591 2706 2591 3278 
Q 2591 3819 2367 4101 
Q 2144 4384 1716 4384 
Q 1347 4384 1125 4161 
Q 903 3938 844 3513 
z
" transform="scale(0.015625)"/>
     </defs>
     <use xlink:href="#DejaVuSerif-Bold-33"/>
     <use xlink:href="#DejaVuSerif-Bold-34" x="69.580078"/>
     <use xlink:href="#DejaVuSerif-Bold-2c" x="139.160156"/>
     <use xlink:href="#DejaVuSerif-Bold-37" x="173.974609"/>
     <use xlink:href="#DejaVuSerif-Bold-35" x="243.554688"/>
     <use xlink:href="#DejaVuSerif-Bold-32" x="313.134766"/>
    </g>
   </g>
   <g id="text_27">
    <!-- Caption Count -->
    <g transform="translate(51.140338 37.24) scale(0.12 -0.12)">
     <defs>
      <path id="DejaVuSerif-75" d="M 2266 3322 
L 3341 3322 
L 3341 331 
L 3884 331 
L 3884 0 
L 2766 0 
L 2766 588 
Q 2606 256 2353 82 
Q 2100 -91 1766 -91 
Q 1213 -91 952 223 
Q 691 538 691 1209 
L 691 2988 
L 172 2988 
L 172 3322 
L 1269 3322 
L 1269 1388 
Q 1269 781 1417 556 
Q 1566 331 1947 331 
Q 2347 331 2556 625 
Q 2766 919 2766 1478 
L 2766 2988 
L 2266 2988 
L 2266 3322 
z
" transform="scale(0.015625)"/>
     </defs>
     <use xlink:href="#DejaVuSerif-43"/>
     <use xlink:href="#DejaVuSerif-61" x="76.513672"/>
     <use xlink:href="#DejaVuSerif-70" x="136.132812"/>
     <use xlink:href="#DejaVuSerif-74" x="200.146484"/>
     <use xlink:href="#DejaVuSerif-69" x="240.332031"/>
     <use xlink:href="#DejaVuSerif-6f" x="272.314453"/>
     <use xlink:href="#DejaVuSerif-6e" x="332.519531"/>
     <use xlink:href="#DejaVuSerif-20" x="396.923828"/>
     <use xlink:href="#DejaVuSerif-43" x="428.710938"/>
     <use xlink:href="#DejaVuSerif-6f" x="505.224609"/>
     <use xlink:href="#DejaVuSerif-75" x="565.429688"/>
     <use xlink:href="#DejaVuSerif-6e" x="629.833984"/>
     <use xlink:href="#DejaVuSerif-74" x="694.238281"/>
    </g>
   </g>
  </g>
  <g id="axes_2">
   <g id="patch_17">
    <path d="M 268.466654 209.56 
L 385.940338 209.56 
L 385.940338 43.24 
L 268.466654 43.24 
L 268.466654 209.56 
z
" style="fill: none"/>
   </g>
   <g id="matplotlib.axis_2"/>
   <g id="patch_18">
    <path d="M 268.466654 209.56 
L 268.466654 43.24 
" style="fill: none; stroke: #000000; stroke-width: 0.8; stroke-linejoin: miter; stroke-linecap: square"/>
   </g>
   <g id="patch_19">
    <path d="M 268.466654 202 
L 380.346353 202 
L 380.346353 194.782816 
L 268.466654 194.782816 
z
" clip-path="url(#pa3d579ef64)" style="fill: #7ea8a1; stroke: #000000; stroke-linejoin: miter"/>
   </g>
   <g id="patch_20">
    <path d="M 268.466654 190.452506 
L 268.466654 190.452506 
L 268.466654 183.235322 
L 268.466654 183.235322 
z
" clip-path="url(#pa3d579ef64)" style="fill: #6a7ba2; stroke: #000000; stroke-linejoin: miter"/>
   </g>
   <g id="patch_21">
    <path d="M 268.466654 178.905012 
L 272.194486 178.905012 
L 272.194486 171.687828 
L 268.466654 171.687828 
z
" clip-path="url(#pa3d579ef64)" style="fill: #b8a089; stroke: #000000; stroke-linejoin: miter"/>
   </g>
   <g id="patch_22">
    <path d="M 268.466654 167.357518 
L 268.466654 167.357518 
L 268.466654 160.140334 
L 268.466654 160.140334 
z
" clip-path="url(#pa3d579ef64)" style="fill: #6a7ba2; stroke: #000000; stroke-linejoin: miter"/>
   </g>
   <g id="patch_23">
    <path d="M 268.466654 155.810024 
L 324.044759 155.810024 
L 324.044759 148.59284 
L 268.466654 148.59284 
z
" clip-path="url(#pa3d579ef64)" style="fill: #7ea8a1; stroke: #000000; stroke-linejoin: miter"/>
   </g>
   <g id="patch_24">
    <path d="M 268.466654 144.26253 
L 269.604098 144.26253 
L 269.604098 137.045346 
L 268.466654 137.045346 
z
" clip-path="url(#pa3d579ef64)" style="fill: #cc79a7; stroke: #000000; stroke-linejoin: miter"/>
   </g>
   <g id="patch_25">
    <path d="M 268.466654 132.715036 
L 270.781072 132.715036 
L 270.781072 125.497852 
L 268.466654 125.497852 
z
" clip-path="url(#pa3d579ef64)" style="fill: #cc79a7; stroke: #000000; stroke-linejoin: miter"/>
   </g>
   <g id="patch_26">
    <path d="M 268.466654 121.167542 
L 271.918516 121.167542 
L 271.918516 113.950358 
L 268.466654 113.950358 
z
" clip-path="url(#pa3d579ef64)" style="fill: #cc79a7; stroke: #000000; stroke-linejoin: miter"/>
   </g>
   <g id="patch_27">
    <path d="M 268.466654 109.620048 
L 335.594474 109.620048 
L 335.594474 102.402864 
L 268.466654 102.402864 
z
" clip-path="url(#pa3d579ef64)" style="fill: #7ea8a1; stroke: #000000; stroke-linejoin: miter"/>
   </g>
   <g id="patch_28">
    <path d="M 268.466654 98.072554 
L 309.085698 98.072554 
L 309.085698 90.85537 
L 268.466654 90.85537 
z
" clip-path="url(#pa3d579ef64)" style="fill: #b8a089; stroke: #000000; stroke-linejoin: miter"/>
   </g>
   <g id="patch_29">
    <path d="M 268.466654 86.52506 
L 353.774925 86.52506 
L 353.774925 79.307876 
L 268.466654 79.307876 
z
" clip-path="url(#pa3d579ef64)" style="fill: #7ea8a1; stroke: #000000; stroke-linejoin: miter"/>
   </g>
   <g id="patch_30">
    <path d="M 268.466654 74.977566 
L 345.316074 74.977566 
L 345.316074 67.760382 
L 268.466654 67.760382 
z
" clip-path="url(#pa3d579ef64)" style="fill: #b8a089; stroke: #000000; stroke-linejoin: miter"/>
   </g>
   <g id="patch_31">
    <path d="M 268.466654 58.017184 
L 299.954823 58.017184 
L 299.954823 50.8 
L 268.466654 50.8 
z
" clip-path="url(#pa3d579ef64)" style="fill: #7ea8a1; stroke: #000000; stroke-linejoin: miter"/>
   </g>
   <g id="text_28">
    <!-- 561,767 -->
    <g transform="translate(384.075677 200.598908) scale(0.08 -0.08)">
     <defs>
      <path id="DejaVuSerif-35" d="M 3219 4666 
L 3219 4153 
L 1081 4153 
L 1081 2816 
Q 1244 2928 1461 2984 
Q 1678 3041 1947 3041 
Q 2703 3041 3140 2622 
Q 3578 2203 3578 1478 
Q 3578 738 3136 323 
Q 2694 -91 1894 -91 
Q 1572 -91 1234 -12 
Q 897 66 544 225 
L 544 1131 
L 897 1131 
Q 925 688 1179 453 
Q 1434 219 1894 219 
Q 2388 219 2653 544 
Q 2919 869 2919 1478 
Q 2919 2084 2655 2407 
Q 2391 2731 1894 2731 
Q 1613 2731 1398 2631 
Q 1184 2531 1019 2322 
L 750 2322 
L 750 4666 
L 3219 4666 
z
" transform="scale(0.015625)"/>
      <path id="DejaVuSerif-36" d="M 2094 219 
Q 2534 219 2771 542 
Q 3009 866 3009 1472 
Q 3009 2078 2771 2401 
Q 2534 2725 2094 2725 
Q 1647 2725 1412 2412 
Q 1178 2100 1178 1509 
Q 1178 888 1415 553 
Q 1653 219 2094 219 
z
M 1075 2569 
Q 1288 2803 1556 2918 
Q 1825 3034 2163 3034 
Q 2859 3034 3264 2615 
Q 3669 2197 3669 1472 
Q 3669 763 3233 336 
Q 2797 -91 2069 -91 
Q 1278 -91 853 498 
Q 428 1088 428 2181 
Q 428 3406 931 4078 
Q 1434 4750 2350 4750 
Q 2597 4750 2869 4703 
Q 3141 4656 3425 4563 
L 3425 3794 
L 3072 3794 
Q 3034 4109 2831 4275 
Q 2628 4441 2284 4441 
Q 1678 4441 1381 3981 
Q 1084 3522 1075 2569 
z
" transform="scale(0.015625)"/>
     </defs>
     <use xlink:href="#DejaVuSerif-35"/>
     <use xlink:href="#DejaVuSerif-36" x="63.623047"/>
     <use xlink:href="#DejaVuSerif-31" x="127.246094"/>
     <use xlink:href="#DejaVuSerif-2c" x="190.869141"/>
     <use xlink:href="#DejaVuSerif-37" x="222.65625"/>
     <use xlink:href="#DejaVuSerif-36" x="286.279297"/>
     <use xlink:href="#DejaVuSerif-37" x="349.902344"/>
    </g>
   </g>
   <g id="text_29">
    <!-- 0 -->
    <g transform="translate(272.195977 189.051414) scale(0.08 -0.08)">
     <use xlink:href="#DejaVuSerif-30"/>
    </g>
   </g>
   <g id="text_30">
    <!-- 4,998 -->
    <g transform="translate(275.923809 177.50392) scale(0.08 -0.08)">
     <use xlink:href="#DejaVuSerif-34"/>
     <use xlink:href="#DejaVuSerif-2c" x="63.623047"/>
     <use xlink:href="#DejaVuSerif-39" x="95.410156"/>
     <use xlink:href="#DejaVuSerif-39" x="159.033203"/>
     <use xlink:href="#DejaVuSerif-38" x="222.65625"/>
    </g>
   </g>
   <g id="text_31">
    <!-- 0 -->
    <g transform="translate(272.195977 165.956426) scale(0.08 -0.08)">
     <use xlink:href="#DejaVuSerif-30"/>
    </g>
   </g>
   <g id="text_32">
    <!-- 74,515 -->
    <g transform="translate(327.774083 154.408932) scale(0.08 -0.08)">
     <use xlink:href="#DejaVuSerif-37"/>
     <use xlink:href="#DejaVuSerif-34" x="63.623047"/>
     <use xlink:href="#DejaVuSerif-2c" x="127.246094"/>
     <use xlink:href="#DejaVuSerif-35" x="159.033203"/>
     <use xlink:href="#DejaVuSerif-31" x="222.65625"/>
     <use xlink:href="#DejaVuSerif-35" x="286.279297"/>
    </g>
   </g>
   <g id="text_33">
    <!-- 1,525 -->
    <g transform="translate(273.333421 142.861438) scale(0.08 -0.08)">
     <use xlink:href="#DejaVuSerif-31"/>
     <use xlink:href="#DejaVuSerif-2c" x="63.623047"/>
     <use xlink:href="#DejaVuSerif-35" x="95.410156"/>
     <use xlink:href="#DejaVuSerif-32" x="159.033203"/>
     <use xlink:href="#DejaVuSerif-35" x="222.65625"/>
    </g>
   </g>
   <g id="text_34">
    <!-- 3,103 -->
    <g transform="translate(274.510395 131.313944) scale(0.08 -0.08)">
     <use xlink:href="#DejaVuSerif-33"/>
     <use xlink:href="#DejaVuSerif-2c" x="63.623047"/>
     <use xlink:href="#DejaVuSerif-31" x="95.410156"/>
     <use xlink:href="#DejaVuSerif-30" x="159.033203"/>
     <use xlink:href="#DejaVuSerif-33" x="222.65625"/>
    </g>
   </g>
   <g id="text_35">
    <!-- 4,628 -->
    <g transform="translate(275.647839 119.76645) scale(0.08 -0.08)">
     <use xlink:href="#DejaVuSerif-34"/>
     <use xlink:href="#DejaVuSerif-2c" x="63.623047"/>
     <use xlink:href="#DejaVuSerif-36" x="95.410156"/>
     <use xlink:href="#DejaVuSerif-32" x="159.033203"/>
     <use xlink:href="#DejaVuSerif-38" x="222.65625"/>
    </g>
   </g>
   <g id="text_36">
    <!-- 90,000 -->
    <g transform="translate(339.323797 108.218956) scale(0.08 -0.08)">
     <use xlink:href="#DejaVuSerif-39"/>
     <use xlink:href="#DejaVuSerif-30" x="63.623047"/>
     <use xlink:href="#DejaVuSerif-2c" x="127.246094"/>
     <use xlink:href="#DejaVuSerif-30" x="159.033203"/>
     <use xlink:href="#DejaVuSerif-30" x="222.65625"/>
     <use xlink:href="#DejaVuSerif-30" x="286.279297"/>
    </g>
   </g>
   <g id="text_37">
    <!-- 54,459 -->
    <g transform="translate(312.815021 96.671462) scale(0.08 -0.08)">
     <use xlink:href="#DejaVuSerif-35"/>
     <use xlink:href="#DejaVuSerif-34" x="63.623047"/>
     <use xlink:href="#DejaVuSerif-2c" x="127.246094"/>
     <use xlink:href="#DejaVuSerif-34" x="159.033203"/>
     <use xlink:href="#DejaVuSerif-35" x="222.65625"/>
     <use xlink:href="#DejaVuSerif-39" x="286.279297"/>
    </g>
   </g>
   <g id="text_38">
    <!-- 114,375 -->
    <g transform="translate(357.504248 85.123968) scale(0.08 -0.08)">
     <use xlink:href="#DejaVuSerif-31"/>
     <use xlink:href="#DejaVuSerif-31" x="63.623047"/>
     <use xlink:href="#DejaVuSerif-34" x="127.246094"/>
     <use xlink:href="#DejaVuSerif-2c" x="190.869141"/>
     <use xlink:href="#DejaVuSerif-33" x="222.65625"/>
     <use xlink:href="#DejaVuSerif-37" x="286.279297"/>
     <use xlink:href="#DejaVuSerif-35" x="349.902344"/>
    </g>
   </g>
   <g id="text_39">
    <!-- 103,034 -->
    <g transform="translate(349.045397 73.576474) scale(0.08 -0.08)">
     <use xlink:href="#DejaVuSerif-31"/>
     <use xlink:href="#DejaVuSerif-30" x="63.623047"/>
     <use xlink:href="#DejaVuSerif-33" x="127.246094"/>
     <use xlink:href="#DejaVuSerif-2c" x="190.869141"/>
     <use xlink:href="#DejaVuSerif-30" x="222.65625"/>
     <use xlink:href="#DejaVuSerif-33" x="286.279297"/>
     <use xlink:href="#DejaVuSerif-34" x="349.902344"/>
    </g>
   </g>
   <g id="text_40">
    <!-- 42,217 -->
    <g transform="translate(303.684146 56.616092) scale(0.08 -0.08)">
     <defs>
      <path id="DejaVuSerif-Bold-31" d="M 878 0 
L 878 378 
L 1753 378 
L 1753 4153 
L 781 3578 
L 781 4044 
L 1953 4750 
L 2938 4750 
L 2938 378 
L 3816 378 
L 3816 0 
L 878 0 
z
" transform="scale(0.015625)"/>
     </defs>
     <use xlink:href="#DejaVuSerif-Bold-34"/>
     <use xlink:href="#DejaVuSerif-Bold-32" x="69.580078"/>
     <use xlink:href="#DejaVuSerif-Bold-2c" x="139.160156"/>
     <use xlink:href="#DejaVuSerif-Bold-32" x="173.974609"/>
     <use xlink:href="#DejaVuSerif-Bold-31" x="243.554688"/>
     <use xlink:href="#DejaVuSerif-Bold-37" x="313.134766"/>
    </g>
   </g>
   <g id="text_41">
    <!-- Annotation Count -->
    <g transform="translate(278.500963 37.24) scale(0.12 -0.12)">
     <use xlink:href="#DejaVuSerif-41"/>
     <use xlink:href="#DejaVuSerif-6e" x="72.216797"/>
     <use xlink:href="#DejaVuSerif-6e" x="136.621094"/>
     <use xlink:href="#DejaVuSerif-6f" x="201.025391"/>
     <use xlink:href="#DejaVuSerif-74" x="261.230469"/>
     <use xlink:href="#DejaVuSerif-61" x="301.416016"/>
     <use xlink:href="#DejaVuSerif-74" x="361.035156"/>
     <use xlink:href="#DejaVuSerif-69" x="401.220703"/>
     <use xlink:href="#DejaVuSerif-6f" x="433.203125"/>
     <use xlink:href="#DejaVuSerif-6e" x="493.408203"/>
     <use xlink:href="#DejaVuSerif-20" x="557.8125"/>
     <use xlink:href="#DejaVuSerif-43" x="589.599609"/>
     <use xlink:href="#DejaVuSerif-6f" x="666.113281"/>
     <use xlink:href="#DejaVuSerif-75" x="726.318359"/>
     <use xlink:href="#DejaVuSerif-6e" x="790.722656"/>
     <use xlink:href="#DejaVuSerif-74" x="855.126953"/>
    </g>
   </g>
  </g>
  <g id="line2d_1">
   <path d="M 10.100338 23.8 
L 416.180338 23.8 
" style="fill: none; stroke: #000000; stroke-width: 0.8; stroke-linecap: square"/>
  </g>
  <g id="legend_1">
   <g id="patch_32">
    <path d="M 17.50987 18.798437 
L 37.50987 18.798437 
L 37.50987 11.798437 
L 17.50987 11.798437 
z
" style="fill: #6a7ba2; stroke: #000000; stroke-linejoin: miter"/>
   </g>
   <g id="text_42">
    <!-- Caption -->
    <g transform="translate(45.50987 18.798437) scale(0.1 -0.1)">
     <use xlink:href="#DejaVuSerif-43"/>
     <use xlink:href="#DejaVuSerif-61" x="76.513672"/>
     <use xlink:href="#DejaVuSerif-70" x="136.132812"/>
     <use xlink:href="#DejaVuSerif-74" x="200.146484"/>
     <use xlink:href="#DejaVuSerif-69" x="240.332031"/>
     <use xlink:href="#DejaVuSerif-6f" x="272.314453"/>
     <use xlink:href="#DejaVuSerif-6e" x="332.519531"/>
    </g>
   </g>
   <g id="patch_33">
    <path d="M 105.20362 18.798437 
L 125.20362 18.798437 
L 125.20362 11.798437 
L 105.20362 11.798437 
z
" style="fill: #b8a089; stroke: #000000; stroke-linejoin: miter"/>
   </g>
   <g id="text_43">
    <!-- Image Category -->
    <g transform="translate(133.20362 18.798437) scale(0.1 -0.1)">
     <defs>
      <path id="DejaVuSerif-6d" d="M 3316 2675 
Q 3481 3041 3739 3227 
Q 3997 3413 4341 3413 
Q 4863 3413 5119 3089 
Q 5375 2766 5375 2113 
L 5375 331 
L 5894 331 
L 5894 0 
L 4300 0 
L 4300 331 
L 4800 331 
L 4800 2047 
Q 4800 2556 4650 2772 
Q 4500 2988 4153 2988 
Q 3769 2988 3567 2697 
Q 3366 2406 3366 1850 
L 3366 331 
L 3866 331 
L 3866 0 
L 2291 0 
L 2291 331 
L 2791 331 
L 2791 2069 
Q 2791 2566 2641 2777 
Q 2491 2988 2144 2988 
Q 1759 2988 1557 2697 
Q 1356 2406 1356 1850 
L 1356 331 
L 1856 331 
L 1856 0 
L 263 0 
L 263 331 
L 781 331 
L 781 2994 
L 231 2994 
L 231 3322 
L 1356 3322 
L 1356 2731 
Q 1516 3063 1762 3238 
Q 2009 3413 2322 3413 
Q 2709 3413 2968 3220 
Q 3228 3028 3316 2675 
z
" transform="scale(0.015625)"/>
      <path id="DejaVuSerif-67" d="M 3359 2988 
L 3359 72 
Q 3359 -644 2965 -1033 
Q 2572 -1422 1844 -1422 
Q 1516 -1422 1216 -1362 
Q 916 -1303 641 -1184 
L 641 -488 
L 941 -488 
Q 997 -813 1206 -963 
Q 1416 -1113 1806 -1113 
Q 2313 -1113 2548 -827 
Q 2784 -541 2784 72 
L 2784 519 
Q 2616 206 2355 57 
Q 2094 -91 1709 -91 
Q 1097 -91 708 395 
Q 319 881 319 1663 
Q 319 2444 706 2928 
Q 1094 3413 1709 3413 
Q 2094 3413 2355 3264 
Q 2616 3116 2784 2803 
L 2784 3322 
L 3909 3322 
L 3909 2988 
L 3359 2988 
z
M 2784 1825 
Q 2784 2422 2554 2737 
Q 2325 3053 1888 3053 
Q 1444 3053 1217 2703 
Q 991 2353 991 1663 
Q 991 975 1217 622 
Q 1444 269 1888 269 
Q 2325 269 2554 583 
Q 2784 897 2784 1497 
L 2784 1825 
z
" transform="scale(0.015625)"/>
      <path id="DejaVuSerif-72" d="M 3059 3328 
L 3059 2497 
L 2728 2497 
Q 2713 2744 2591 2866 
Q 2469 2988 2234 2988 
Q 1809 2988 1582 2694 
Q 1356 2400 1356 1850 
L 1356 331 
L 2022 331 
L 2022 0 
L 263 0 
L 263 331 
L 781 331 
L 781 2994 
L 231 2994 
L 231 3322 
L 1356 3322 
L 1356 2731 
Q 1525 3078 1790 3245 
Q 2056 3413 2438 3413 
Q 2578 3413 2733 3391 
Q 2888 3369 3059 3328 
z
" transform="scale(0.015625)"/>
      <path id="DejaVuSerif-79" d="M 1381 -609 
L 1600 -56 
L 359 2988 
L -19 2988 
L -19 3322 
L 1509 3322 
L 1509 2988 
L 978 2988 
L 1913 703 
L 2847 2988 
L 2350 2988 
L 2350 3322 
L 3597 3322 
L 3597 2988 
L 3225 2988 
L 1703 -750 
Q 1547 -1138 1356 -1280 
Q 1166 -1422 819 -1422 
Q 672 -1422 517 -1397 
Q 363 -1372 206 -1325 
L 206 -691 
L 500 -691 
Q 519 -903 608 -995 
Q 697 -1088 884 -1088 
Q 1056 -1088 1161 -992 
Q 1266 -897 1381 -609 
z
" transform="scale(0.015625)"/>
     </defs>
     <use xlink:href="#DejaVuSerif-49"/>
     <use xlink:href="#DejaVuSerif-6d" x="39.501953"/>
     <use xlink:href="#DejaVuSerif-61" x="134.326172"/>
     <use xlink:href="#DejaVuSerif-67" x="193.945312"/>
     <use xlink:href="#DejaVuSerif-65" x="257.958984"/>
     <use xlink:href="#DejaVuSerif-20" x="317.138672"/>
     <use xlink:href="#DejaVuSerif-43" x="348.925781"/>
     <use xlink:href="#DejaVuSerif-61" x="425.439453"/>
     <use xlink:href="#DejaVuSerif-74" x="485.058594"/>
     <use xlink:href="#DejaVuSerif-65" x="525.244141"/>
     <use xlink:href="#DejaVuSerif-67" x="584.423828"/>
     <use xlink:href="#DejaVuSerif-6f" x="648.4375"/>
     <use xlink:href="#DejaVuSerif-72" x="708.642578"/>
     <use xlink:href="#DejaVuSerif-79" x="756.445312"/>
    </g>
   </g>
   <g id="patch_34">
    <path d="M 234.500495 18.798437 
L 254.500495 18.798437 
L 254.500495 11.798437 
L 234.500495 11.798437 
z
" style="fill: #7ea8a1; stroke: #000000; stroke-linejoin: miter"/>
   </g>
   <g id="text_44">
    <!-- Bounding Box -->
    <g transform="translate(262.500495 18.798437) scale(0.1 -0.1)">
     <defs>
      <path id="DejaVuSerif-78" d="M 1863 2028 
L 2559 2988 
L 2113 2988 
L 2113 3322 
L 3391 3322 
L 3391 2988 
L 2950 2988 
L 2059 1759 
L 3097 331 
L 3531 331 
L 3531 0 
L 1997 0 
L 1997 331 
L 2419 331 
L 1697 1325 
L 972 331 
L 1403 331 
L 1403 0 
L 141 0 
L 141 331 
L 581 331 
L 1497 1594 
L 488 2988 
L 78 2988 
L 78 3322 
L 1563 3322 
L 1563 2988 
L 1166 2988 
L 1863 2028 
z
" transform="scale(0.015625)"/>
     </defs>
     <use xlink:href="#DejaVuSerif-42"/>
     <use xlink:href="#DejaVuSerif-6f" x="73.486328"/>
     <use xlink:href="#DejaVuSerif-75" x="133.691406"/>
     <use xlink:href="#DejaVuSerif-6e" x="198.095703"/>
     <use xlink:href="#DejaVuSerif-64" x="262.5"/>
     <use xlink:href="#DejaVuSerif-69" x="326.513672"/>
     <use xlink:href="#DejaVuSerif-6e" x="358.496094"/>
     <use xlink:href="#DejaVuSerif-67" x="422.900391"/>
     <use xlink:href="#DejaVuSerif-20" x="486.914062"/>
     <use xlink:href="#DejaVuSerif-42" x="518.701172"/>
     <use xlink:href="#DejaVuSerif-6f" x="592.1875"/>
     <use xlink:href="#DejaVuSerif-78" x="652.392578"/>
    </g>
   </g>
   <g id="patch_35">
    <path d="M 353.37862 18.798437 
L 373.37862 18.798437 
L 373.37862 11.798437 
L 353.37862 11.798437 
z
" style="fill: #cc79a7; stroke: #000000; stroke-linejoin: miter"/>
   </g>
   <g id="text_45">
    <!-- Mask -->
    <g transform="translate(381.37862 18.798437) scale(0.1 -0.1)">
     <defs>
      <path id="DejaVuSerif-6b" d="M 1831 0 
L 219 0 
L 219 331 
L 738 331 
L 738 4531 
L 184 4531 
L 184 4863 
L 1313 4863 
L 1313 1697 
L 2713 2988 
L 2234 2988 
L 2234 3322 
L 3738 3322 
L 3738 2988 
L 3169 2988 
L 2181 2075 
L 3444 331 
L 3922 331 
L 3922 0 
L 2284 0 
L 2284 331 
L 2759 331 
L 1766 1697 
L 1313 1275 
L 1313 331 
L 1831 331 
L 1831 0 
z
" transform="scale(0.015625)"/>
     </defs>
     <use xlink:href="#DejaVuSerif-4d"/>
     <use xlink:href="#DejaVuSerif-61" x="102.392578"/>
     <use xlink:href="#DejaVuSerif-73" x="162.011719"/>
     <use xlink:href="#DejaVuSerif-6b" x="213.330078"/>
    </g>
   </g>
  </g>
 </g>
 <defs>
  <clipPath id="p3348438129">
   <rect x="51.140338" y="43.24" width="117.473684" height="166.32"/>
  </clipPath>
  <clipPath id="pa3d579ef64">
   <rect x="268.466654" y="43.24" width="117.473684" height="166.32"/>
  </clipPath>
 </defs>
</svg>
